HIERARCHY
ROOT Hips
{
	OFFSET 0.00000 0.00000 0.00000
	CHANNELS 6 Xposition Yposition Zposition Zrotation Yrotation Xrotation 
	JOINT LHipJoint
	{
		OFFSET 0 0 0
		CHANNELS 3 Zrotation Yrotation Xrotation
		JOINT LeftHip
		{
			OFFSET 1.48831 -1.59570 0.95625
			CHANNELS 3 Zrotation Yrotation Xrotation
			JOINT LeftKnee
			{
				OFFSET 2.20856 -6.06797 0.00000
				CHANNELS 3 Zrotation Yrotation Xrotation
				JOINT LeftAnkle
				{
					OFFSET 2.62924 -7.22379 0.00000
					CHANNELS 3 Zrotation Yrotation Xrotation
					JOINT LeftToe
					{
						OFFSET 0.16802 -0.46163 2.41673
						CHANNELS 3 Zrotation Yrotation Xrotation
						End Site
						{
							OFFSET 0.00000 -0.00000 1.23760
						}
					}
				}
			}
		}
	}
	JOINT RHipJoint
	{
		OFFSET 0 0 0
		CHANNELS 3 Zrotation Yrotation Xrotation
		JOINT RightHip
		{
			OFFSET -1.56796 -1.59570 0.95625
			CHANNELS 3 Zrotation Yrotation Xrotation
			JOINT RightKnee
			{
				OFFSET -2.29239 -6.29829 0.00000
				CHANNELS 3 Zrotation Yrotation Xrotation
				JOINT RightAnkle
				{
					OFFSET -2.66963 -7.33475 0.00000
					CHANNELS 3 Zrotation Yrotation Xrotation
					JOINT RightToe
					{
						OFFSET -0.18185 -0.49964 2.34359
						CHANNELS 3 Zrotation Yrotation Xrotation
						End Site
						{
							OFFSET -0.00000 -0.00000 1.20477
						}
					}
				}
			}
		}
	}
	JOINT lowerback
	{
		OFFSET 0 0 0
		CHANNELS 3 Zrotation Yrotation Xrotation
		JOINT Chest
		{
			OFFSET 0.03505 2.15832 -0.34324
			CHANNELS 3 Zrotation Yrotation Xrotation
			JOINT Chest2
			{
				OFFSET -0.01089 2.17963 0.04689
				CHANNELS 3 Zrotation Yrotation Xrotation
				JOINT lowerneck
				{
					OFFSET 0 0 0
					CHANNELS 3 Zrotation Yrotation Xrotation
					JOINT Neck
					{
						OFFSET 0.04686 1.69404 0.22159
						CHANNELS 3 Zrotation Yrotation Xrotation
						JOINT Head
						{
							OFFSET 0.00265 1.69305 -0.01513
							CHANNELS 3 Zrotation Yrotation Xrotation
							End Site
							{
								OFFSET -0.00415 1.80215 -0.03034
							}
						}
					}
				}
				JOINT LeftCollar
				{
					OFFSET 0 0 0
					CHANNELS 3 Zrotation Yrotation Xrotation
					JOINT LeftShoulder
					{
						OFFSET 3.67184 1.11724 -0.19002
CHANNELS 3 Zrotation Xrotation Yrotation
						JOINT LeftElbow
						{
OFFSET 0 -5.177140 -0.000000
CHANNELS 3 Zrotation Xrotation Yrotation
							JOINT LeftWrist
							{
OFFSET 0 -3.436790 -0.000000
CHANNELS 3 Zrotation Xrotation Yrotation
								JOINT lhand
								{
									OFFSET 0 0 0
CHANNELS 3 Zrotation Xrotation Yrotation
									JOINT LFingers
									{
OFFSET 0 -0.573120 -0.000000
CHANNELS 3 Zrotation Xrotation Yrotation
										End Site
										{
OFFSET 0 -0.462060 -0.000000
										}
									}
								}
								JOINT LThumb
								{
OFFSET 0 0.000000 0.000000
CHANNELS 3 Zrotation Xrotation Yrotation
									End Site
									{
OFFSET 0 -0.469120 0.469120
									}
								}
							}
						}
					}
				}
				JOINT RightCollar
				{
					OFFSET 0 0 0
					CHANNELS 3 Zrotation Yrotation Xrotation
					JOINT RightShoulder
					{
						OFFSET -3.59596 0.95831 -0.26050
CHANNELS 3 Zrotation Xrotation Yrotation
						JOINT RightElbow
						{
OFFSET 0 -5.239080 -0.000000
CHANNELS 3 Zrotation Xrotation Yrotation
							JOINT RightWrist
							{
OFFSET 0 -3.464850 -0.000000
CHANNELS 3 Zrotation Xrotation Yrotation
								JOINT rhand
								{
									OFFSET 0 0 0
CHANNELS 3 Zrotation Xrotation Yrotation
									JOINT RFingers
									{
OFFSET 0 -0.608750 -0.000000
CHANNELS 3 Zrotation Xrotation Yrotation
										End Site
										{
OFFSET 0 -0.490790 -0.000000
										}
									}
								}
								JOINT RThumb
								{
OFFSET 0 0.000000 0.000000
CHANNELS 3 Zrotation Xrotation Yrotation
									End Site
									{
OFFSET 0 -0.498290 0.498290
									}
								}
							}
						}
					}
				}
			}
		}
	}
}
MOTION
Frames: 12
Frame Time: 0.008333333333333333
10.335196 14.007659 -4.686479 -22.613775 -69.860736 60.656135 0.000000 0.000000 0.000000 -8.599234 -8.711838 -92.839394 15.540925 19.516431 76.860776 1.917237 6.283724 -29.029683 0.002300 -0.308525 -0.847695 0.000000 0.000000 0.000000 11.935423 16.618169 -89.518956 -15.589628 -19.527124 77.006622 -1.903335 -4.484822 -27.981542 -0.060269 1.584010 -4.357316 2.782870 -1.924642 34.947686 -0.025121 -3.859333 20.892066 -0.548517 -2.420987 5.251419 0.873589 6.852812 1.139873 -0.079608 9.427781 -13.233016 -0.575032 4.602754 -4.526901 0.000000 0.000000 0.000000 106.223331 -58.983542 40.525383 21.932977 -32.901194 6.549401 26.471416 -16.907611 -10.159670 0.000000 0.000000 0.000000 -7.125000 0.000000 0.000000 -0.491056 41.299613 -0.044789 0.000000 0.000000 0.000000 -14.929573 -20.195332 32.980342 -56.414310 -55.276157 -31.375268 -26.063923 -3.090060 8.739983 0.000000 0.000000 0.000000 7.125000 0.000000 0.000000 0.733150 39.690290 0.095951
10.326637 14.010171 -4.677334 -21.749984 -69.949599 60.013437 0.000000 0.000000 0.000000 -8.925710 -8.963926 -92.874503 15.498040 19.506945 76.732420 1.913745 6.260712 -28.994226 0.002107 -0.296690 -0.815175 0.000000 0.000000 0.000000 11.495786 16.490990 -89.765309 -15.622683 -19.534302 77.105355 -1.908459 -4.577092 -28.061757 -0.060786 1.590836 -4.376141 2.821575 -1.734855 35.072336 0.193851 -3.615645 20.876734 -0.397257 -2.313217 5.211409 0.731889 6.824599 1.318033 0.112527 9.414750 -13.560422 -0.505816 4.584567 -4.702587 0.000000 0.000000 0.000000 107.434085 -58.868769 41.995383 21.771174 -32.717408 6.461694 26.215103 -16.226324 -9.880831 0.000000 0.000000 0.000000 -7.125000 0.000000 0.000000 -0.694318 40.966291 -0.069098 0.000000 0.000000 0.000000 -15.279796 -19.849230 32.538417 -56.448238 -55.286749 -31.403152 -26.097604 -3.177918 8.781946 0.000000 0.000000 0.000000 7.125000 0.000000 0.000000 0.706941 39.739477 0.091714
10.317637 13.987100 -4.671950 -21.402763 -70.241372 60.167644 0.000000 0.000000 0.000000 -9.126620 -9.069423 -93.479477 15.564115 19.521558 76.930235 1.913108 6.317579 -29.021889 0.002345 -0.314279 -0.863390 0.000000 0.000000 0.000000 10.949945 16.595737 -90.508448 -15.725060 -19.556089 77.411479 -1.916942 -4.537263 -28.098750 -0.058776 1.563792 -4.301691 2.677400 -1.440972 34.641679 0.340305 -3.295078 20.823927 -0.267363 -2.171698 5.315076 0.754318 6.903894 1.343308 0.039807 9.517268 -13.470798 -0.536478 4.640118 -4.668609 0.000000 0.000000 0.000000 108.354702 -58.847775 43.467927 21.595014 -32.516264 6.366753 26.948975 -15.342807 -9.747478 0.000000 0.000000 0.000000 -7.125000 0.000000 0.000000 -0.032446 40.887659 -0.003308 0.000000 0.000000 0.000000 -15.499294 -19.818101 32.495814 -55.619151 -55.024769 -30.722716 -25.876100 -3.129127 8.808750 0.000000 0.000000 0.000000 7.125000 0.000000 0.000000 0.902787 39.750463 0.116858
10.310740 13.965844 -4.663426 -21.335223 -70.387129 60.440042 0.000000 0.000000 0.000000 -9.126456 -9.171970 -93.956244 15.654074 19.541056 77.199469 1.929247 6.336522 -29.137750 0.001583 -0.256371 -0.704421 0.000000 0.000000 0.000000 10.712408 16.613333 -91.046848 -15.810014 -19.573799 77.665190 -1.917839 -4.508670 -28.090527 -0.062717 1.615960 -4.445494 2.577520 -1.291493 34.405906 0.423086 -3.131955 20.762856 -0.176695 -2.101694 5.335555 0.900701 6.941913 1.351013 -0.234327 9.548466 -13.521450 -0.654177 4.663374 -4.664264 0.000000 0.000000 0.000000 108.914766 -58.689895 43.956171 21.485437 -32.390647 6.307993 26.926112 -15.138241 -9.472366 0.000000 0.000000 0.000000 -7.125000 0.000000 0.000000 -0.031484 40.579096 -0.003458 0.000000 0.000000 0.000000 -15.520817 -20.202695 32.868588 -54.581309 -54.684023 -29.874125 -25.520281 -3.002178 8.791844 0.000000 0.000000 0.000000 7.125000 0.000000 0.000000 1.212331 39.702107 0.158376
10.301190 13.953831 -4.659303 -21.672400 -70.320266 60.904455 0.000000 0.000000 0.000000 -8.872875 -9.180637 -94.217041 15.732617 19.557643 77.433993 1.939005 6.391839 -29.232509 0.001341 -0.234862 -0.645386 0.000000 0.000000 0.000000 10.769345 16.696958 -91.239367 -15.852371 -19.582474 77.791632 -1.919485 -4.463670 -28.079146 -0.064236 1.635229 -4.498458 2.495321 -1.218479 34.475032 0.490913 -3.054726 20.701594 -0.077349 -2.076882 5.248807 1.029128 6.927770 1.474629 -0.272624 9.541666 -13.921908 -0.706087 4.646116 -4.828639 0.000000 0.000000 0.000000 109.441509 -58.778145 44.210735 21.258553 -32.128900 6.186852 27.084728 -14.716663 -9.499753 0.000000 0.000000 0.000000 -7.125000 0.000000 0.000000 0.106782 40.624216 0.011474 0.000000 0.000000 0.000000 -15.309437 -20.456510 33.238025 -54.436124 -54.635140 -29.755608 -25.314238 -3.027211 8.683246 0.000000 0.000000 0.000000 7.125000 0.000000 0.000000 1.382965 39.565411 0.185241
10.293318 13.937104 -4.654809 -22.200515 -70.094826 61.734373 0.000000 0.000000 0.000000 -8.418150 -9.201566 -94.755353 15.828323 19.577563 77.719844 1.944351 6.418068 -29.282057 0.001042 -0.206560 -0.567416 0.000000 0.000000 0.000000 10.940999 16.829276 -91.631042 -15.885577 -19.589199 77.890632 -1.913966 -4.522493 -28.071548 -0.068608 1.690169 -4.650168 2.541201 -1.320445 34.324113 0.431231 -3.156408 20.672560 -0.141873 -2.113682 5.262198 1.286894 6.967417 1.598263 -0.316412 9.615142 -14.248777 -0.782708 4.662608 -4.958647 0.000000 0.000000 0.000000 109.856959 -58.817325 44.087144 21.092824 -31.936597 6.099013 27.280019 -14.764263 -9.426908 0.000000 0.000000 0.000000 -7.125000 0.000000 0.000000 0.284672 40.560998 0.031130 0.000000 0.000000 0.000000 -14.842832 -20.583505 33.524555 -54.980768 -54.816876 -30.200266 -25.421435 -3.142490 8.639800 0.000000 0.000000 0.000000 7.125000 0.000000 0.000000 1.285893 39.526331 0.173489
10.283438 13.920660 -4.652963 -23.043117 -69.957724 62.872182 0.000000 0.000000 0.000000 -7.886941 -9.133614 -95.295053 15.927915 19.597684 78.016841 1.947329 6.551205 -29.376502 0.001200 -0.223543 -0.614193 0.000000 0.000000 0.000000 11.173344 17.059991 -91.991380 -15.908652 -19.593793 77.959264 -1.916893 -4.445326 -28.052513 -0.068478 1.687761 -4.643535 2.484039 -1.439422 34.155715 0.207142 -3.318176 20.705153 -0.313089 -2.178391 5.342139 1.472992 7.041069 1.631379 -0.173630 9.748337 -14.340360 -0.776351 4.706088 -4.997265 0.000000 0.000000 0.000000 110.478406 -58.573298 43.762975 20.800512 -31.594712 5.945103 27.151464 -14.504729 -9.696530 0.000000 0.000000 0.000000 -7.125000 0.000000 0.000000 0.151197 40.849992 0.015453 0.000000 0.000000 0.000000 -14.339425 -20.579719 33.878638 -55.762992 -55.070944 -30.840553 -25.661618 -3.212097 8.595807 0.000000 0.000000 0.000000 7.125000 0.000000 0.000000 1.072819 39.497607 0.145545
10.275711 13.914484 -4.645611 -23.880722 -69.812573 64.015408 0.000000 0.000000 0.000000 -7.389060 -9.073113 -95.768523 15.995706 19.611142 78.219021 1.960216 6.603993 -29.489624 0.000734 -0.178533 -0.490507 0.000000 0.000000 0.000000 11.525244 17.139325 -92.312361 -15.892592 -19.590605 77.911543 -1.905501 -4.213095 -27.861832 -0.067997 1.682636 -4.629449 2.545140 -1.631742 34.095419 -0.096927 -3.542386 20.762680 -0.611217 -2.257288 5.402373 1.509543 7.037198 1.560873 -0.069702 9.758120 -14.377857 -0.745946 4.702109 -5.001483 0.000000 0.000000 0.000000 111.064470 -58.213446 43.430184 20.578274 -31.332808 5.829103 26.986537 -13.877758 -10.047015 0.000000 0.000000 0.000000 -7.125000 0.000000 0.000000 -0.022794 41.224809 -0.002063 0.000000 0.000000 0.000000 -13.976317 -20.356673 34.065517 -56.625535 -55.341563 -31.548980 -25.748955 -3.313254 8.532831 0.000000 0.000000 0.000000 7.125000 0.000000 0.000000 0.991744 39.435283 0.136040
10.267798 13.900610 -4.639038 -24.903846 -69.770466 65.585610 0.000000 0.000000 0.000000 -6.881122 -8.967520 -96.561184 16.073016 19.626158 78.449120 1.957023 6.790035 -29.575969 0.000872 -0.189622 -0.520957 0.000000 0.000000 0.000000 11.732578 17.378624 -92.878701 -15.864730 -19.584998 77.828546 -1.914230 -3.777699 -27.711159 -0.047752 1.409665 -3.876824 2.493253 -1.669878 33.796980 -0.322440 -3.612598 20.815562 -0.817457 -2.274887 5.550031 1.424453 6.977127 1.306786 -0.035410 9.667498 -14.311947 -0.702191 4.663997 -4.932996 0.000000 0.000000 0.000000 111.254507 -57.895134 43.198151 20.822102 -31.620104 5.956408 26.848945 -13.612675 -10.648021 0.000000 0.000000 0.000000 -7.125000 0.000000 0.000000 -0.196682 41.879399 -0.015145 0.000000 0.000000 0.000000 -13.874470 -20.014847 33.928839 -57.046772 -55.470164 -31.895670 -26.094510 -3.443798 8.489818 0.000000 0.000000 0.000000 7.125000 0.000000 0.000000 0.687424 39.415866 0.094578
10.256230 13.897300 -4.631630 -25.538789 -69.725571 66.617601 0.000000 0.000000 0.000000 -6.514357 -8.946229 -97.043141 16.107260 19.632750 78.550979 1.952760 6.938396 -29.634699 0.000900 -0.196449 -0.539867 0.000000 0.000000 0.000000 11.861039 17.554566 -93.236303 -15.826271 -19.577100 77.713602 -1.908900 -3.645781 -27.613112 -0.041830 1.320471 -3.630992 2.406694 -1.576984 33.741877 -0.388030 -3.536834 20.884768 -0.865901 -2.241091 5.647299 1.348072 6.912632 1.204840 0.043325 9.583532 -14.344520 -0.655872 4.622251 -4.934320 0.000000 0.000000 0.000000 111.749491 -57.834288 43.631528 20.909791 -31.722871 6.002450 27.308398 -13.045060 -10.791849 0.000000 0.000000 0.000000 -7.125000 0.000000 0.000000 0.203759 42.087238 0.014649 0.000000 0.000000 0.000000 -14.030883 -19.653210 33.406978 -56.800337 -55.395225 -31.692734 -26.241716 -3.530341 8.502549 0.000000 0.000000 0.000000 7.125000 0.000000 0.000000 0.560104 39.441879 0.076711
10.245667 13.894171 -4.624123 -25.714575 -69.573811 67.178914 0.000000 0.000000 0.000000 -6.229207 -9.031480 -97.471356 16.120319 19.635213 78.590057 1.957469 6.939685 -29.665762 0.000448 -0.135589 -0.372582 0.000000 0.000000 0.000000 11.889885 17.664757 -93.605035 -15.811440 -19.574048 77.669471 -1.901375 -3.782824 -27.626800 -0.048233 1.417840 -3.899256 2.399013 -1.496389 33.710818 -0.352225 -3.449075 20.940850 -0.850396 -2.200404 5.726644 1.344399 6.904490 1.172961 0.139537 9.579513 -14.146178 -0.615644 4.619721 -4.859657 0.000000 0.000000 0.000000 112.277951 -57.792811 44.480709 20.839235 -31.640243 5.965429 27.861507 -12.718537 -10.345446 0.000000 0.000000 0.000000 -7.125000 0.000000 0.000000 0.735867 41.645356 0.060959 0.000000 0.000000 0.000000 -14.238767 -19.545213 32.947528 -55.837312 -55.094500 -30.901523 -26.204001 -3.291546 8.586617 0.000000 0.000000 0.000000 7.125000 0.000000 0.000000 0.599165 39.532013 0.080750
10.235816 13.884645 -4.617944 -25.499612 -69.392699 67.462147 0.000000 0.000000 0.000000 -6.105703 -9.162667 -98.038582 16.134584 19.637957 78.632509 1.955174 6.870235 -29.610661 0.000514 -0.140725 -0.386592 0.000000 0.000000 0.000000 11.791179 17.680134 -94.157162 -15.829750 -19.577813 77.724108 -1.904886 -3.882978 -27.697951 -0.051284 1.461597 -4.019796 2.437908 -1.465218 33.521262 -0.344454 -3.399122 20.974381 -0.884004 -2.165849 5.832026 1.539030 6.841138 1.113919 -0.102185 9.468952 -13.981050 -0.715412 4.574372 -4.761439 0.000000 0.000000 0.000000 112.963389 -57.546624 44.901303 20.683880 -31.457453 5.884105 28.380142 -12.091845 -10.170667 0.000000 0.000000 0.000000 -7.125000 0.000000 0.000000 1.212576 41.501775 0.104669 0.000000 0.000000 0.000000 -14.254518 -19.599735 32.741698 -54.838192 -54.769740 -30.083784 -26.150507 -3.025690 8.596659 0.000000 0.000000 0.000000 7.125000 0.000000 0.000000 0.646667 39.538761 0.087083
